<svg id="Layer_1" data-name="Layer 1" xmlns="http://www.w3.org/2000/svg" viewBox="0 0 511.57 551.93"><defs><style>.cls-1{fill:#2e289d;}</style></defs><path class="cls-1" d="M794.23,605.14l-1.05-.76L623.69,482q-17.51-12.65-35-25.28c-2.29-1.66-2.29-1.71-1-4.13,4.11-7.92,8.21-15.84,12.39-23.73,2.9-5.49,1.54-4.52,7.44-4.52q81.64,0,163.28,0c1.59,0,3.17-.08,4.75,0a2.44,2.44,0,0,0,2.59-1.82c.2-.53.47-1.05.71-1.57q8.41-18.21,16.84-36.44c.3-.65.58-1.31.87-2a1.68,1.68,0,0,0-.6-2.26q-1.74-1.27-3.49-2.54L643.62,271c-2.45-1.76-4.93-3.49-7.37-5.28a5.17,5.17,0,0,0-3.58-1.2c-.85.08-1.72,0-2.59,0q-95.25,0-190.5,0c-6.05,0-4.77-.81-7.36,4.56Q398.79,338.52,365.41,408l-29.56,61.47c-1.24,2.58-1.2,2.6.93,4.24.57.44,1.15.86,1.73,1.29l72.34,53.26c3.93,2.9,3.69,2.21,1.59,6.45Q368.36,623.4,324.3,712.12q-18.92,38.08-37.81,76.17c-.39.77-.79,1.53-1.15,2.31a1.24,1.24,0,0,0,.37,1.55c.75.66,1.58,1.25,2.39,1.85,8.86,6.66,17.78,13.24,26.56,20a11.41,11.41,0,0,0,7.51,2.43q41.47-.23,82.94-.21,51.18,0,102.36,0v.16h62.64q61.11,0,122.24,0c5.65,0,4.55.83,7-4.36Q724.7,759,750,706.07q22.78-47.72,45.58-95.42C797.16,607.33,797.59,607.48,794.23,605.14ZM451.63,270.55H627.88a11.09,11.09,0,0,0,1.29,0,8.1,8.1,0,0,1,6,1.84c6.73,4.95,13.55,9.77,20.33,14.64Q716.72,330.94,778,374.88c1.29.93,2.56,1.86,3.84,2.8.35.26.62.58.44,1.05s-.71.4-1.1.41c-1.15,0-2.3,0-3.45,0H602.29a17.28,17.28,0,0,0-2.16,0,7.63,7.63,0,0,1-5.58-1.76c-9.9-7.18-19.87-14.29-29.81-21.42q-57-40.92-114-81.84a13.06,13.06,0,0,1-4.08-3.6Zm138.45,343q-45.75,95.36-91.56,190.67c-.68,1.42-1.4,2.82-2.2,4.42-4.06-2.21-7.43-5.13-11.06-7.67s-7.23-5.22-10.85-7.83l-10.85-7.85-10.84-7.85-10.85-7.84L431,761.71l-10.85-7.84L409.33,746l-10.85-7.86-10.84-7.84q-5.43-3.93-10.85-7.86l-11.11-8c-3.52,6.39-6.54,12.74-9.74,19s-6.29,12.29-9.42,18.45L337,770.81q-4.68,9.24-9.39,18.47l-9.46,18.61c-1.17.36-1.65-.26-2.19-.66l-21.08-15.8-.35-.26c-1.86-1.47-1.88-1.48-.9-3.51,1.64-3.37,3.31-6.72,5-10.07q33.82-68,67.64-136.06,27-54.31,53.95-108.64c.38-.78.81-1.53,1.17-2.31.61-1.36.55-1.72-.55-2.61s-2.07-1.55-3.11-2.32Q381.84,499.27,346,472.89c-4.39-3.24-4-2.21-1.66-7.1q45.48-94.53,91-189c.67-1.41,1.39-2.79,2.06-4.14a11.82,11.82,0,0,1,3.92,2.33L588.7,380.68l1.4,1c2.06,1.56,2.09,1.58,1.14,3.86-2.49,6-5,11.93-7.54,17.9-1.28,3.05-2.61,6.08-3.87,9.14-1.92,4.65-1.64,4.05-5.07,1.55q-13.44-9.78-26.85-19.62l-95.85-70.14c-4.43-3.24-3.78-3-5.91,1.33q-31,63.65-61.93,127.32c-1.84,3.79-2.41,3.21,1.52,6.07q62.37,45.31,124.68,90.71l77.9,56.64C592.9,609.79,592.37,608.75,590.08,613.52Zm187.48-8.39q-43.84,0-87.69,0c-29.52,0-59,0-88.55.05a12.57,12.57,0,0,1-7.94-2.55q-96.53-70.3-193.13-140.5c-1.15-.83-2.27-1.71-3.35-2.53.38-1.15,1.2-.88,1.85-.88l64.36.09c1.29,0,2.59,0,3.89,0l92.87.06c5.9,0,11.81.16,17.71,0a10.33,10.33,0,0,1,6.75,2.13c13.12,9.6,26.34,19.08,39.53,28.6L778.64,601.41c1.26.91,2.5,1.86,4.32,3.22A14.19,14.19,0,0,1,777.56,605.13Z" transform="translate(-285.21 -264.5)"/><path class="cls-1" d="M550.82,622.88c-.89-.74-1.8-1.44-2.72-2.13l-22.8-17.07Q489,576.5,452.75,549.34c-1.23-.92-2.31-2.13-4.1-2.52-.7,1.33-1.39,2.58-2,3.85q-31.94,63.86-63.87,127.72c-2.24,4.5-2.7,3.56,1.66,6.69q49.8,35.73,99.62,71.44c1.16.83,2.35,1.62,3.86,2.65.7-1.31,1.2-2.17,1.62-3.07q30.32-64.65,60.61-129.29c.37-.78.74-1.56,1-2.36A1.32,1.32,0,0,0,550.82,622.88Zm-35.73,64.25-29.52,63c-30-21.53-59.43-42.69-88.87-63.86-.17-.12-.16-.48-.24-.74.54-.66,1.3-.38,2-.38,33.35-.49,112.44-.26,116.93.32A1.94,1.94,0,0,1,515.09,687.13Z" transform="translate(-285.21 -264.5)"/></svg>